<?xml version="1.0" encoding="UTF-8"?>
<svg width="512px" height="384px" viewBox="0 0 512 384" version="1.1" xmlns="http://www.w3.org/2000/svg" xmlns:xlink="http://www.w3.org/1999/xlink">
    <title>image</title>
    <g id="Page-1" stroke="none" stroke-width="1" fill="none" fill-rule="evenodd">
        <g id="image" fill="#4158D0" fill-rule="nonzero">
            <path d="M464,0 L48,0 C21.49,0 0,21.49 0,48 L0,336 C0,362.51 21.49,384 48,384 L464,384 C490.51,384 512,362.51 512,336 L512,48 C512,21.49 490.51,0 464,0 Z M458,336 L54,336 C50.6862915,336 48,333.313708 48,330 L48,54 C48,50.6862915 50.6862915,48 54,48 L458,48 C461.313708,48 464,50.6862915 464,54 L464,330 C464,333.313708 461.313708,336 458,336 L458,336 Z M128,88 C105.909,88 88,105.909 88,128 C88,150.091 105.909,168 128,168 C150.091,168 168,150.091 168,128 C168,105.909 150.091,88 128,88 Z M96,288 L416,288 L416,208 L328.485,120.485 C323.799,115.799 316.201,115.799 311.514,120.485 L192,240 L152.485,200.485 C147.799,195.799 140.201,195.799 135.514,200.485 L96,240 L96,288 Z" id="Shape"></path>
        </g>
    </g>
</svg>