<svg width="250" height="60" viewBox="0 0 250 60" fill="none" xmlns="http://www.w3.org/2000/svg">
<path d="M34.8125 24.5C34.2655 24.5 33.7409 24.7173 33.3541 25.1041C32.9673 25.4909 32.75 26.0155 32.75 26.5625C32.75 27.1095 32.9673 27.6341 33.3541 28.0209C33.7409 28.4077 34.2655 28.625 34.8125 28.625C35.3595 28.625 35.8841 28.4077 36.2709 28.0209C36.6577 27.6341 36.875 27.1095 36.875 26.5625C36.875 26.0155 36.6577 25.4909 36.2709 25.1041C35.8841 24.7173 35.3595 24.5 34.8125 24.5Z" fill="#EDEDED"/>
<path d="M25.1875 24.5C24.6405 24.5 24.1159 24.7173 23.7291 25.1041C23.3423 25.4909 23.125 26.0155 23.125 26.5625C23.125 27.1095 23.3423 27.6341 23.7291 28.0209C24.1159 28.4077 24.6405 28.625 25.1875 28.625C25.7345 28.625 26.2591 28.4077 26.6459 28.0209C27.0327 27.6341 27.25 27.1095 27.25 26.5625C27.25 26.0155 27.0327 25.4909 26.6459 25.1041C26.2591 24.7173 25.7345 24.5 25.1875 24.5V24.5Z" fill="#EDEDED"/>
<path d="M20.375 17.625H39.625V19H20.375V17.625Z" fill="#EDEDED"/>
<path d="M45.1243 29.3125H44.4375V26.5322C44.4375 25.8667 44.1054 25.2432 43.5506 24.8644C42.9827 24.4759 42.2588 24.3941 41.616 24.6457L41 24.8864V23.125H43.0618C44.1989 23.125 45.1243 22.1996 45.1243 21.0625C45.1243 19.9254 44.1989 19 43.0618 19H41V14.1875C41 13.0504 40.0746 12.125 38.9375 12.125H21.0625C19.9254 12.125 19 13.0504 19 14.1875V19H16.9382C15.8011 19 14.8757 19.9254 14.8757 21.0625C14.8757 22.1996 15.8011 23.125 16.9382 23.125H19V24.8864L18.3813 24.6444C17.7398 24.3927 17.0172 24.4746 16.4494 24.8616C15.8939 25.2411 15.5625 25.8654 15.5625 26.5316V29.3125H14.8757C13.7386 29.3125 12.8125 30.2372 12.8125 31.375V36.875C12.8125 38.0121 13.7386 38.9375 14.8757 38.9375H15.5625V41.11C15.5625 41.9474 16.0733 42.6878 16.8633 42.9965L28.7268 47.6351C29.1379 47.7946 29.5689 47.875 30 47.875C30.4311 47.875 30.8628 47.7946 31.2733 47.6344L43.1374 42.9965C43.9267 42.6878 44.4375 41.9474 44.4375 41.11V38.9375H45.1243C46.2614 38.9375 47.1875 38.0121 47.1875 36.8743V31.3743C47.1875 30.2372 46.2614 29.3125 45.1243 29.3125ZM21.0625 13.5H38.9375C39.317 13.5 39.625 13.8087 39.625 14.1875V16.25H20.375V14.1875C20.375 13.8087 20.6837 13.5 21.0625 13.5ZM20.375 17.625H39.625V19H20.375V17.625ZM16.2507 21.0625C16.2507 20.6837 16.5587 20.375 16.9382 20.375H43.0625C43.442 20.375 43.75 20.6837 43.75 21.0625C43.75 21.4413 43.442 21.75 43.0625 21.75H16.9382C16.5587 21.75 16.2507 21.4413 16.2507 21.0625ZM20.375 23.125H39.625V25.424L30.7721 28.8849C30.2743 29.0788 29.7277 29.0801 29.2321 28.8862L20.375 25.424V23.125ZM14.1875 36.8743V31.3743C14.1875 30.9955 14.4962 30.6868 14.8757 30.6868H16.2507C18.1461 30.6868 19.6882 32.2289 19.6882 34.1243C19.6882 36.0198 18.1461 37.5618 16.2507 37.5618H14.8757C14.4962 37.5625 14.1875 37.2538 14.1875 36.8743ZM16.9375 41.11V38.8825C19 38.547 21.0625 36.5443 21.0625 34.125C21.0625 31.7057 19 29.703 16.9375 29.3675V26.5322C16.9375 26.3177 17.0427 26.1225 17.2249 25.9981C17.4201 25.8654 17.6594 25.8386 17.8801 25.9259L26.5625 29.3194V45.312L17.3637 41.7157C17.1046 41.6146 16.9375 41.3767 16.9375 41.11ZM30.7721 46.3536C30.2736 46.5481 29.7257 46.5481 29.2279 46.3536L27.9375 45.8496V29.857L28.7309 30.1671C28.9206 30.2406 28.625 30.2936 29.3125 30.3334V39.625H30.6875V30.3334C30.8855 30.2936 31.0821 30.2399 31.2733 30.165L32.0625 29.8563V45.8496L30.7721 46.3536ZM42.6363 41.7164L33.4375 45.312V29.3187L42.1165 25.9259C42.3393 25.8386 42.5799 25.8661 42.7758 25.9994C42.9573 26.1239 43.0625 26.3184 43.0625 26.5322V29.3675C40.3125 29.703 38.9375 31.7057 38.9375 34.125C38.9375 36.5443 40.3125 38.547 43.0625 38.8825V41.11C43.0625 41.3767 42.8954 41.6146 42.6363 41.7164ZM45.8125 36.8743C45.8125 37.2538 45.5038 37.5625 45.1243 37.5625H43.7493C41.8539 37.5625 40.3118 36.0204 40.3118 34.125C40.3118 32.2296 41.8539 30.6875 43.7493 30.6875H45.1243C45.5038 30.6875 45.8125 30.9955 45.8125 31.375V36.8743Z" fill="url(#paint0_linear)"/>
<path d="M66.282 23.1026L62.5385 34.2308H62.4615L60.8461 28.282L59.0256 22.7949H55V23.359L61.2051 40.8974H63.5641L67.0256 31.2051H67.1026L70.6667 40.8974H72.9487L79.1282 23.359V22.7949H75.1025L73.3077 28.2564L71.7949 34.2308H71.7179L67.8461 23.1026H66.282Z" fill="url(#paint1_linear)"/>
<path d="M84.7622 33.6667C84.7622 31.9231 86.0186 30.9487 87.4032 30.9487C88.916 30.9487 89.4545 31.641 89.6596 32.9487C89.7365 33.5384 89.7365 34.2308 89.7365 35.0513V37.4102C89.7365 40.6666 91.7365 41.282 94.7109 40.6666V38.5128C93.5058 38.5897 93.3263 38.3333 93.3263 37.2308V33.9231C93.3263 33.3077 93.3006 32.7436 93.2237 32.1538C92.8391 29.8205 91.5827 28.282 88.8135 28.1538C87.2494 28.0769 85.7622 28.5385 84.7622 30.0513V22H81.1724V40.7692H84.7622V33.6667Z" fill="url(#paint2_linear)"/>
<path d="M108.64 29.2564C106.999 28.5641 105.204 28.1538 103.384 28.1282C99.2041 28.0513 96.3579 30.2308 96.2297 34.4102C96.2297 37.9231 97.999 40.9231 101.819 41C103.46 41 105.05 40.1538 105.743 38.6154C105.743 41.3077 108.23 41.0769 109.819 40.6666V38.359C108.589 38.4359 108.64 37.8718 108.64 36.8205V29.2564ZM105.153 34.5384C105.076 36.4102 104.307 37.8205 102.589 37.8205C100.743 37.8461 99.8195 36.359 99.8195 34.4102C99.8964 32.0513 101.153 30.9743 103.102 30.9743C103.717 30.9743 104.46 31.0513 105.153 31.3333V34.5384Z" fill="url(#paint3_linear)"/>
<path d="M117.065 24.5641H114.193L113.809 28.4102H111.219V30.8718L113.552 31.1026V35.7436C113.552 40.8205 117.322 41.5128 121.578 40.3333L121.245 37.6154C119.193 38.359 117.065 38.2308 117.065 35.6667V31.1026H121.091V28.4102H117.065V24.5641Z" fill="url(#paint4_linear)"/>
<path d="M172.818 22.7949H168.997V40.7436H172.818V33.5384C173.613 33.5384 174.946 33.5384 175.639 33.359L180.151 40.7436H184.485V40.1795L178.997 31.8718C180.1 30.7692 180.715 29.1538 181.254 27.1026C181.638 25.7436 182.408 25.3077 183.844 25.4359V22.8205C179.895 22 178.331 23.7436 177.715 25.9744C177.228 28 176.869 29.359 175.921 29.8718C175.203 30.2308 173.921 30.2051 172.818 30.2051V22.7949Z" fill="url(#paint5_linear)"/>
<path d="M185.368 30.4615C186.753 30.3846 186.727 30.8718 186.727 32.2308V40.7436H190.317V33.6667C190.317 31.9487 191.573 30.8974 192.907 30.9743C194.214 30.9743 195.317 31.8718 195.291 33.5897V37.7949C195.291 40.8718 197.727 41.1795 200.163 40.5641V38.4615C198.907 38.5384 198.855 37.9743 198.855 36.8205V33.5897C198.932 30.5128 197.471 28.1282 193.983 28.1282C192.342 28.1282 190.881 28.7692 190.086 30.2308C190.086 27.8461 187.189 28.0256 185.368 28.359V30.4615Z" fill="url(#paint6_linear)"/>
<path d="M214.825 34.5128C214.825 30.2051 211.543 28.1282 208.261 28.1282C204.979 28.1282 201.723 30.2051 201.723 34.5128C201.723 38.8461 204.979 41 208.261 41C211.543 41 214.825 38.8461 214.825 34.5128ZM205.287 34.5128C205.287 32.282 206.774 31.282 208.287 31.282C209.774 31.282 211.261 32.3077 211.261 34.5128C211.261 36.7436 209.8 37.8461 208.287 37.8461C206.774 37.8461 205.287 36.7692 205.287 34.5128Z" fill="url(#paint7_linear)"/>
<path d="M223.287 38.0256C221.979 38.0256 221.185 37.0769 221.21 35.4615V31.1026C221.21 28 218.749 27.7692 216.287 28.3077V30.359C217.62 30.282 217.646 31.0513 217.646 32.2564V35.5641C217.569 38.8461 219.723 40.8461 222.928 40.8461C224.595 40.8461 226.185 40.4102 226.928 38.7949C227.723 40.282 229.313 40.8718 230.928 40.8461C237.8 40.8461 236.697 32.6923 235.236 28.3846H231.774C232.595 30.5128 234.39 38.0256 230.595 38.0256C229.338 38.0256 228.569 37.1282 228.595 35.4615V28.3846H225.236V35.4615C225.261 37.1282 224.518 38.0256 223.287 38.0256Z" fill="url(#paint8_linear)"/>
<path d="M130.327 30.0513L128.634 26.6154L126.404 22.7949H122.275V23.359L128.455 33.5641V40.7436H132.301V33.5641L138.455 23.359V22.7949H134.378L132.224 26.4872L130.455 30.0513H130.327Z" fill="url(#paint9_linear)"/>
<path d="M150.523 34.5129C150.523 30.2052 147.24 28.1282 143.958 28.1282C140.676 28.1282 137.42 30.2052 137.42 34.5129C137.42 38.8462 140.676 41 143.958 41C147.24 41 150.523 38.8462 150.523 34.5129ZM140.984 34.5129C140.984 32.2821 142.471 31.2821 143.984 31.2821C145.471 31.2821 146.958 32.3077 146.958 34.5129C146.958 36.7436 145.497 37.8462 143.984 37.8462C142.471 37.8462 140.984 36.7693 140.984 34.5129Z" fill="url(#paint10_linear)"/>
<path d="M161.266 28.3847V35.359C161.266 37.0257 160.164 38.2052 158.728 38.1795C157.471 38.1795 156.523 37.2821 156.6 35.5385V28.3847H152.984V35.5385C152.984 38.6154 154.01 41 157.574 41C158.959 41 160.882 40.359 161.574 38.9231C161.574 41.3077 164.292 41.1282 166.036 40.718L166.01 38.4872C164.907 38.5641 164.856 38.1539 164.856 37V28.3847H161.266Z" fill="url(#paint11_linear)"/>
<defs>
<linearGradient id="paint0_linear" x1="30" y1="12.125" x2="30" y2="47.875" gradientUnits="userSpaceOnUse">
<stop stop-color="#4158D0"/>
<stop offset="0.494792" stop-color="#C850C0"/>
<stop offset="1" stop-color="#FFCC70"/>
</linearGradient>
<linearGradient id="paint1_linear" x1="145.665" y1="22" x2="145.665" y2="41" gradientUnits="userSpaceOnUse">
<stop stop-color="#4158D0"/>
<stop offset="0.0001" stop-color="#6E55CB"/>
<stop offset="0.494792" stop-color="#C850C0"/>
<stop offset="0.9999" stop-color="#ECA18C"/>
<stop offset="1" stop-color="#FFCC70"/>
</linearGradient>
<linearGradient id="paint2_linear" x1="145.665" y1="22" x2="145.665" y2="41" gradientUnits="userSpaceOnUse">
<stop stop-color="#4158D0"/>
<stop offset="0.0001" stop-color="#6E55CB"/>
<stop offset="0.494792" stop-color="#C850C0"/>
<stop offset="0.9999" stop-color="#ECA18C"/>
<stop offset="1" stop-color="#FFCC70"/>
</linearGradient>
<linearGradient id="paint3_linear" x1="145.665" y1="22" x2="145.665" y2="41" gradientUnits="userSpaceOnUse">
<stop stop-color="#4158D0"/>
<stop offset="0.0001" stop-color="#6E55CB"/>
<stop offset="0.494792" stop-color="#C850C0"/>
<stop offset="0.9999" stop-color="#ECA18C"/>
<stop offset="1" stop-color="#FFCC70"/>
</linearGradient>
<linearGradient id="paint4_linear" x1="145.665" y1="22" x2="145.665" y2="41" gradientUnits="userSpaceOnUse">
<stop stop-color="#4158D0"/>
<stop offset="0.0001" stop-color="#6E55CB"/>
<stop offset="0.494792" stop-color="#C850C0"/>
<stop offset="0.9999" stop-color="#ECA18C"/>
<stop offset="1" stop-color="#FFCC70"/>
</linearGradient>
<linearGradient id="paint5_linear" x1="145.665" y1="22" x2="145.665" y2="41" gradientUnits="userSpaceOnUse">
<stop stop-color="#4158D0"/>
<stop offset="0.0001" stop-color="#6E55CB"/>
<stop offset="0.494792" stop-color="#C850C0"/>
<stop offset="0.9999" stop-color="#ECA18C"/>
<stop offset="1" stop-color="#FFCC70"/>
</linearGradient>
<linearGradient id="paint6_linear" x1="145.665" y1="22" x2="145.665" y2="41" gradientUnits="userSpaceOnUse">
<stop stop-color="#4158D0"/>
<stop offset="0.0001" stop-color="#6E55CB"/>
<stop offset="0.494792" stop-color="#C850C0"/>
<stop offset="0.9999" stop-color="#ECA18C"/>
<stop offset="1" stop-color="#FFCC70"/>
</linearGradient>
<linearGradient id="paint7_linear" x1="145.665" y1="22" x2="145.665" y2="41" gradientUnits="userSpaceOnUse">
<stop stop-color="#4158D0"/>
<stop offset="0.0001" stop-color="#6E55CB"/>
<stop offset="0.494792" stop-color="#C850C0"/>
<stop offset="0.9999" stop-color="#ECA18C"/>
<stop offset="1" stop-color="#FFCC70"/>
</linearGradient>
<linearGradient id="paint8_linear" x1="145.665" y1="22" x2="145.665" y2="41" gradientUnits="userSpaceOnUse">
<stop stop-color="#4158D0"/>
<stop offset="0.0001" stop-color="#6E55CB"/>
<stop offset="0.494792" stop-color="#C850C0"/>
<stop offset="0.9999" stop-color="#ECA18C"/>
<stop offset="1" stop-color="#FFCC70"/>
</linearGradient>
<linearGradient id="paint9_linear" x1="144.155" y1="22.7949" x2="144.155" y2="41" gradientUnits="userSpaceOnUse">
<stop stop-color="#FFCC70"/>
<stop offset="0.0001" stop-color="#FCC475"/>
<stop offset="0.9997" stop-color="#D772AA"/>
<stop offset="0.9998" stop-color="#D369B0"/>
<stop offset="0.9999" stop-color="#C850C0"/>
<stop offset="1" stop-color="white"/>
</linearGradient>
<linearGradient id="paint10_linear" x1="144.155" y1="22.7949" x2="144.155" y2="41" gradientUnits="userSpaceOnUse">
<stop stop-color="#FFCC70"/>
<stop offset="0.0001" stop-color="#FCC475"/>
<stop offset="0.9997" stop-color="#D772AA"/>
<stop offset="0.9998" stop-color="#D369B0"/>
<stop offset="0.9999" stop-color="#C850C0"/>
<stop offset="1" stop-color="white"/>
</linearGradient>
<linearGradient id="paint11_linear" x1="144.155" y1="22.7949" x2="144.155" y2="41" gradientUnits="userSpaceOnUse">
<stop stop-color="#FFCC70"/>
<stop offset="0.0001" stop-color="#FCC475"/>
<stop offset="0.9997" stop-color="#D772AA"/>
<stop offset="0.9998" stop-color="#D369B0"/>
<stop offset="0.9999" stop-color="#C850C0"/>
<stop offset="1" stop-color="white"/>
</linearGradient>
</defs>
</svg>
