<svg width="240" height="60" viewBox="0 0 240 60" fill="none" xmlns="http://www.w3.org/2000/svg">
<path d="M29.9375 25.5C29.4899 25.5 29.0607 25.6778 28.7443 25.9943C28.4278 26.3107 28.25 26.7399 28.25 27.1875C28.25 27.6351 28.4278 28.0643 28.7443 28.3807C29.0607 28.6972 29.4899 28.875 29.9375 28.875C30.3851 28.875 30.8143 28.6972 31.1307 28.3807C31.4472 28.0643 31.625 27.6351 31.625 27.1875C31.625 26.7399 31.4472 26.3107 31.1307 25.9943C30.8143 25.6778 30.3851 25.5 29.9375 25.5Z" fill="#EDEDED"/>
<path d="M22.0625 25.5C21.6149 25.5 21.1857 25.6778 20.8693 25.9943C20.5528 26.3107 20.375 26.7399 20.375 27.1875C20.375 27.6351 20.5528 28.0643 20.8693 28.3807C21.1857 28.6972 21.6149 28.875 22.0625 28.875C22.5101 28.875 22.9393 28.6972 23.2557 28.3807C23.5722 28.0643 23.75 27.6351 23.75 27.1875C23.75 26.7399 23.5722 26.3107 23.2557 25.9943C22.9393 25.6778 22.5101 25.5 22.0625 25.5V25.5Z" fill="#EDEDED"/>
<path d="M18.125 19.875H33.875V21H18.125V19.875Z" fill="#EDEDED"/>
<path d="M38.3744 29.4375H37.8125V27.1627C37.8125 26.6182 37.5408 26.1081 37.0869 25.7981C36.6222 25.4803 36.0299 25.4134 35.504 25.6192L35 25.8161V24.375H36.6869C37.6173 24.375 38.3744 23.6179 38.3744 22.6875C38.3744 21.7571 37.6173 21 36.6869 21H35V17.0625C35 16.1321 34.2429 15.375 33.3125 15.375H18.6875C17.7571 15.375 17 16.1321 17 17.0625V21H15.3131C14.3827 21 13.6256 21.7571 13.6256 22.6875C13.6256 23.6179 14.3827 24.375 15.3131 24.375H17V25.8161L16.4938 25.6181C15.9689 25.4122 15.3777 25.4792 14.9131 25.7959C14.4586 26.1064 14.1875 26.6171 14.1875 27.1622V29.4375H13.6256C12.6952 29.4375 11.9375 30.1941 11.9375 31.125V35.625C11.9375 36.5554 12.6952 37.3125 13.6256 37.3125H14.1875V39.09C14.1875 39.7751 14.6054 40.3809 15.2518 40.6335L24.9583 44.4287C25.2946 44.5592 25.6473 44.625 26 44.625C26.3527 44.625 26.7059 44.5592 27.0418 44.4281L36.7488 40.6335C37.3946 40.3809 37.8125 39.7751 37.8125 39.09V37.3125H38.3744C39.3048 37.3125 40.0625 36.5554 40.0625 35.6244V31.1244C40.0625 30.1941 39.3048 29.4375 38.3744 29.4375ZM18.6875 16.5H33.3125C33.623 16.5 33.875 16.7526 33.875 17.0625V18.75H18.125V17.0625C18.125 16.7526 18.3776 16.5 18.6875 16.5ZM18.125 19.875H33.875V21H18.125V19.875ZM14.7506 22.6875C14.7506 22.3776 15.0026 22.125 15.3131 22.125H36.6875C36.998 22.125 37.25 22.3776 37.25 22.6875C37.25 22.9974 36.998 23.25 36.6875 23.25H15.3131C15.0026 23.25 14.7506 22.9974 14.7506 22.6875ZM18.125 24.375H33.875V26.256L26.6317 29.0876C26.2244 29.2462 25.7772 29.2474 25.3717 29.0887L18.125 26.256V24.375ZM13.0625 35.6244V31.1244C13.0625 30.8145 13.3151 30.5619 13.6256 30.5619H14.7506C16.3014 30.5619 17.5631 31.8236 17.5631 33.3744C17.5631 34.9253 16.3014 36.1869 14.7506 36.1869H13.6256C13.3151 36.1875 13.0625 35.9349 13.0625 35.6244ZM15.3125 39.09V37.2675C17 36.993 18.6875 35.3544 18.6875 33.375C18.6875 31.3956 17 29.757 15.3125 29.4825V27.1627C15.3125 26.9872 15.3986 26.8275 15.5476 26.7257C15.7074 26.6171 15.9031 26.5952 16.0837 26.6666L23.1875 29.4431V42.528L15.6612 39.5856C15.4492 39.5029 15.3125 39.3083 15.3125 39.09ZM26.6317 43.3802C26.2239 43.5394 25.7756 43.5394 25.3683 43.3802L24.3125 42.9679V29.883L24.9616 30.1367C25.1169 30.1969 24.875 30.2402 25.4375 30.2728V37.875H26.5625V30.2728C26.7245 30.2402 26.8854 30.1963 27.0418 30.135L27.6875 29.8824V42.9679L26.6317 43.3802ZM36.3388 39.5861L28.8125 42.528V29.4426L35.9135 26.6666C36.0958 26.5952 36.2926 26.6177 36.4529 26.7268C36.6014 26.8286 36.6875 26.9878 36.6875 27.1627V29.4825C34.4375 29.757 33.3125 31.3956 33.3125 33.375C33.3125 35.3544 34.4375 36.993 36.6875 37.2675V39.09C36.6875 39.3083 36.5508 39.5029 36.3388 39.5861ZM38.9375 35.6244C38.9375 35.9349 38.6849 36.1875 38.3744 36.1875H37.2494C35.6986 36.1875 34.4369 34.9258 34.4369 33.375C34.4369 31.8242 35.6986 30.5625 37.2494 30.5625H38.3744C38.6849 30.5625 38.9375 30.8145 38.9375 31.125V35.6244Z" fill="url(#paint0_linear)"/>
<path d="M60.282 22.1026L56.5385 33.2308H56.4615L54.8461 27.282L53.0256 21.7949H49V22.359L55.2051 39.8974H57.5641L61.0256 30.2051H61.1026L64.6667 39.8974H66.9487L73.1282 22.359V21.7949H69.1025L67.3077 27.2564L65.7949 33.2308H65.7179L61.8461 22.1026H60.282Z" fill="url(#paint1_linear)"/>
<path d="M78.7622 32.6667C78.7622 30.9231 80.0186 29.9487 81.4032 29.9487C82.916 29.9487 83.4545 30.641 83.6596 31.9487C83.7365 32.5384 83.7365 33.2308 83.7365 34.0513V36.4102C83.7365 39.6666 85.7365 40.282 88.7109 39.6666V37.5128C87.5058 37.5897 87.3263 37.3333 87.3263 36.2308V32.9231C87.3263 32.3077 87.3006 31.7436 87.2237 31.1538C86.8391 28.8205 85.5827 27.282 82.8135 27.1538C81.2494 27.0769 79.7622 27.5385 78.7622 29.0513V21H75.1724V39.7692H78.7622V32.6667Z" fill="url(#paint2_linear)"/>
<path d="M102.64 28.2564C100.999 27.5641 99.2041 27.1538 97.3836 27.1282C93.2041 27.0513 90.3579 29.2308 90.2297 33.4102C90.2297 36.9231 91.999 39.9231 95.8195 40C97.4605 40 99.0502 39.1538 99.7425 37.6154C99.7425 40.3077 102.23 40.0769 103.819 39.6666V37.359C102.589 37.4359 102.64 36.8718 102.64 35.8205V28.2564ZM99.1528 33.5384C99.0759 35.4102 98.3066 36.8205 96.5887 36.8205C94.7425 36.8461 93.8195 35.359 93.8195 33.4102C93.8964 31.0513 95.1528 29.9743 97.1015 29.9743C97.7169 29.9743 98.4605 30.0513 99.1528 30.3333V33.5384Z" fill="url(#paint3_linear)"/>
<path d="M111.065 23.5641H108.193L107.809 27.4102H105.219V29.8718L107.552 30.1026V34.7436C107.552 39.8205 111.322 40.5128 115.578 39.3333L115.245 36.6154C113.193 37.359 111.065 37.2308 111.065 34.6667V30.1026H115.091V27.4102H111.065V23.5641Z" fill="url(#paint4_linear)"/>
<path d="M166.818 21.7949H162.997V39.7436H166.818V32.5384C167.613 32.5384 168.946 32.5384 169.639 32.359L174.151 39.7436H178.485V39.1795L172.997 30.8718C174.1 29.7692 174.715 28.1538 175.254 26.1026C175.638 24.7436 176.408 24.3077 177.844 24.4359V21.8205C173.895 21 172.331 22.7436 171.715 24.9744C171.228 27 170.869 28.359 169.921 28.8718C169.203 29.2308 167.921 29.2051 166.818 29.2051V21.7949Z" fill="url(#paint5_linear)"/>
<path d="M179.368 29.4615C180.753 29.3846 180.727 29.8718 180.727 31.2308V39.7436H184.317V32.6667C184.317 30.9487 185.573 29.8974 186.907 29.9743C188.214 29.9743 189.317 30.8718 189.291 32.5897V36.7949C189.291 39.8718 191.727 40.1795 194.163 39.5641V37.4615C192.907 37.5384 192.855 36.9743 192.855 35.8205V32.5897C192.932 29.5128 191.471 27.1282 187.983 27.1282C186.342 27.1282 184.881 27.7692 184.086 29.2308C184.086 26.8461 181.189 27.0256 179.368 27.359V29.4615Z" fill="url(#paint6_linear)"/>
<path d="M208.825 33.5128C208.825 29.2051 205.543 27.1282 202.261 27.1282C198.979 27.1282 195.723 29.2051 195.723 33.5128C195.723 37.8461 198.979 40 202.261 40C205.543 40 208.825 37.8461 208.825 33.5128ZM199.287 33.5128C199.287 31.282 200.774 30.282 202.287 30.282C203.774 30.282 205.261 31.3077 205.261 33.5128C205.261 35.7436 203.8 36.8461 202.287 36.8461C200.774 36.8461 199.287 35.7692 199.287 33.5128Z" fill="url(#paint7_linear)"/>
<path d="M217.287 37.0256C215.979 37.0256 215.185 36.0769 215.21 34.4615V30.1026C215.21 27 212.749 26.7692 210.287 27.3077V29.359C211.62 29.282 211.646 30.0513 211.646 31.2564V34.5641C211.569 37.8461 213.723 39.8461 216.928 39.8461C218.595 39.8461 220.185 39.4102 220.928 37.7949C221.723 39.282 223.313 39.8718 224.928 39.8461C231.8 39.8461 230.697 31.6923 229.236 27.3846H225.774C226.595 29.5128 228.39 37.0256 224.595 37.0256C223.338 37.0256 222.569 36.1282 222.595 34.4615V27.3846H219.236V34.4615C219.261 36.1282 218.518 37.0256 217.287 37.0256Z" fill="url(#paint8_linear)"/>
<path d="M124.327 29.0513L122.634 25.6154L120.404 21.7949H116.275V22.359L122.455 32.5641V39.7436H126.301V32.5641L132.455 22.359V21.7949H128.378L126.224 25.4872L124.455 29.0513H124.327Z" fill="url(#paint9_linear)"/>
<path d="M144.523 33.5129C144.523 29.2052 141.24 27.1282 137.958 27.1282C134.676 27.1282 131.42 29.2052 131.42 33.5129C131.42 37.8462 134.676 40 137.958 40C141.24 40 144.523 37.8462 144.523 33.5129ZM134.984 33.5129C134.984 31.2821 136.471 30.2821 137.984 30.2821C139.471 30.2821 140.958 31.3077 140.958 33.5129C140.958 35.7436 139.497 36.8462 137.984 36.8462C136.471 36.8462 134.984 35.7693 134.984 33.5129Z" fill="url(#paint10_linear)"/>
<path d="M155.266 27.3847V34.359C155.266 36.0257 154.164 37.2052 152.728 37.1795C151.471 37.1795 150.523 36.2821 150.6 34.5385V27.3847H146.984V34.5385C146.984 37.6154 148.01 40 151.574 40C152.959 40 154.882 39.359 155.574 37.9231C155.574 40.3077 158.292 40.1282 160.036 39.718L160.01 37.4872C158.907 37.5641 158.856 37.1539 158.856 36V27.3847H155.266Z" fill="url(#paint11_linear)"/>
<defs>
<linearGradient id="paint0_linear" x1="26" y1="15.375" x2="26" y2="44.625" gradientUnits="userSpaceOnUse">
<stop stop-color="#4158D0"/>
<stop offset="0.494792" stop-color="#C850C0"/>
<stop offset="1" stop-color="#FFCC70"/>
</linearGradient>
<linearGradient id="paint1_linear" x1="139.665" y1="21" x2="139.665" y2="40" gradientUnits="userSpaceOnUse">
<stop stop-color="#4158D0"/>
<stop offset="0.0001" stop-color="#6E55CB"/>
<stop offset="0.494792" stop-color="#C850C0"/>
<stop offset="0.9999" stop-color="#ECA18C"/>
<stop offset="1" stop-color="#FFCC70"/>
</linearGradient>
<linearGradient id="paint2_linear" x1="139.665" y1="21" x2="139.665" y2="40" gradientUnits="userSpaceOnUse">
<stop stop-color="#4158D0"/>
<stop offset="0.0001" stop-color="#6E55CB"/>
<stop offset="0.494792" stop-color="#C850C0"/>
<stop offset="0.9999" stop-color="#ECA18C"/>
<stop offset="1" stop-color="#FFCC70"/>
</linearGradient>
<linearGradient id="paint3_linear" x1="139.665" y1="21" x2="139.665" y2="40" gradientUnits="userSpaceOnUse">
<stop stop-color="#4158D0"/>
<stop offset="0.0001" stop-color="#6E55CB"/>
<stop offset="0.494792" stop-color="#C850C0"/>
<stop offset="0.9999" stop-color="#ECA18C"/>
<stop offset="1" stop-color="#FFCC70"/>
</linearGradient>
<linearGradient id="paint4_linear" x1="139.665" y1="21" x2="139.665" y2="40" gradientUnits="userSpaceOnUse">
<stop stop-color="#4158D0"/>
<stop offset="0.0001" stop-color="#6E55CB"/>
<stop offset="0.494792" stop-color="#C850C0"/>
<stop offset="0.9999" stop-color="#ECA18C"/>
<stop offset="1" stop-color="#FFCC70"/>
</linearGradient>
<linearGradient id="paint5_linear" x1="139.665" y1="21" x2="139.665" y2="40" gradientUnits="userSpaceOnUse">
<stop stop-color="#4158D0"/>
<stop offset="0.0001" stop-color="#6E55CB"/>
<stop offset="0.494792" stop-color="#C850C0"/>
<stop offset="0.9999" stop-color="#ECA18C"/>
<stop offset="1" stop-color="#FFCC70"/>
</linearGradient>
<linearGradient id="paint6_linear" x1="139.665" y1="21" x2="139.665" y2="40" gradientUnits="userSpaceOnUse">
<stop stop-color="#4158D0"/>
<stop offset="0.0001" stop-color="#6E55CB"/>
<stop offset="0.494792" stop-color="#C850C0"/>
<stop offset="0.9999" stop-color="#ECA18C"/>
<stop offset="1" stop-color="#FFCC70"/>
</linearGradient>
<linearGradient id="paint7_linear" x1="139.665" y1="21" x2="139.665" y2="40" gradientUnits="userSpaceOnUse">
<stop stop-color="#4158D0"/>
<stop offset="0.0001" stop-color="#6E55CB"/>
<stop offset="0.494792" stop-color="#C850C0"/>
<stop offset="0.9999" stop-color="#ECA18C"/>
<stop offset="1" stop-color="#FFCC70"/>
</linearGradient>
<linearGradient id="paint8_linear" x1="139.665" y1="21" x2="139.665" y2="40" gradientUnits="userSpaceOnUse">
<stop stop-color="#4158D0"/>
<stop offset="0.0001" stop-color="#6E55CB"/>
<stop offset="0.494792" stop-color="#C850C0"/>
<stop offset="0.9999" stop-color="#ECA18C"/>
<stop offset="1" stop-color="#FFCC70"/>
</linearGradient>
<linearGradient id="paint9_linear" x1="138.155" y1="21.7949" x2="138.155" y2="40" gradientUnits="userSpaceOnUse">
<stop stop-color="#FFCC70"/>
<stop offset="0.0001" stop-color="#FCC475"/>
<stop offset="0.9997" stop-color="#D772AA"/>
<stop offset="0.9998" stop-color="#D369B0"/>
<stop offset="0.9999" stop-color="#C850C0"/>
<stop offset="1" stop-color="white"/>
</linearGradient>
<linearGradient id="paint10_linear" x1="138.155" y1="21.7949" x2="138.155" y2="40" gradientUnits="userSpaceOnUse">
<stop stop-color="#FFCC70"/>
<stop offset="0.0001" stop-color="#FCC475"/>
<stop offset="0.9997" stop-color="#D772AA"/>
<stop offset="0.9998" stop-color="#D369B0"/>
<stop offset="0.9999" stop-color="#C850C0"/>
<stop offset="1" stop-color="white"/>
</linearGradient>
<linearGradient id="paint11_linear" x1="138.155" y1="21.7949" x2="138.155" y2="40" gradientUnits="userSpaceOnUse">
<stop stop-color="#FFCC70"/>
<stop offset="0.0001" stop-color="#FCC475"/>
<stop offset="0.9997" stop-color="#D772AA"/>
<stop offset="0.9998" stop-color="#D369B0"/>
<stop offset="0.9999" stop-color="#C850C0"/>
<stop offset="1" stop-color="white"/>
</linearGradient>
</defs>
</svg>
