<?xml version="1.0" encoding="UTF-8"?>
<svg width="300px" height="300px" viewBox="0 0 300 300" version="1.1" xmlns="http://www.w3.org/2000/svg" xmlns:xlink="http://www.w3.org/1999/xlink">
    <title>user-circle</title>
    <g id="Page-1" stroke="none" stroke-width="1" fill="none" fill-rule="evenodd">
        <g id="Avatar_placeholder" fill="#4158D0" fill-rule="nonzero">
            <g id="user-circle" transform="translate(0.000000, 0.000000)">
                <path d="M150,0 C67.1370968,0 0,67.1370968 0,150 C0,232.862903 67.1370968,300 150,300 C232.862903,300 300,232.862903 300,150 C300,67.1370968 232.862903,0 150,0 Z M150,58.0645161 C179.395161,58.0645161 203.225806,81.8951613 203.225806,111.290323 C203.225806,140.685484 179.395161,164.516129 150,164.516129 C120.604839,164.516129 96.7741935,140.685484 96.7741935,111.290323 C96.7741935,81.8951613 120.604839,58.0645161 150,58.0645161 Z M150,266.129032 C114.495968,266.129032 82.6814516,250.040323 61.391129,224.879032 C72.7620968,203.467742 95.0201613,188.709677 120.967742,188.709677 C122.419355,188.709677 123.870968,188.951613 125.262097,189.375 C133.125,191.915323 141.350806,193.548387 150,193.548387 C158.649194,193.548387 166.935484,191.915323 174.737903,189.375 C176.129032,188.951613 177.580645,188.709677 179.032258,188.709677 C204.979839,188.709677 227.237903,203.467742 238.608871,224.879032 C217.318548,250.040323 185.504032,266.129032 150,266.129032 Z" id="Shape"></path>
            </g>
        </g>
    </g>
</svg>